<mxfile host="app.diagrams.net" agent="Mozilla/5.0 (Windows NT 10.0; Win64; x64) AppleWebKit/537.36 (KHTML, like Gecko) Chrome/130.0.0.0 Safari/537.36" version="24.8.3">
  <diagram id="C5RBs43oDa-KdzZeNtuy" name="Page-1">
    <mxGraphModel dx="607" dy="746" grid="1" gridSize="10" guides="1" tooltips="1" connect="1" arrows="1" fold="1" page="1" pageScale="1" pageWidth="827" pageHeight="1169" math="0" shadow="0">
      <root>
        <mxCell id="WIyWlLk6GJQsqaUBKTNV-0" />
        <mxCell id="WIyWlLk6GJQsqaUBKTNV-1" parent="WIyWlLk6GJQsqaUBKTNV-0" />
        <mxCell id="tyMHoPtOE--nNUZfLRSC-26" value="" style="rounded=1;whiteSpace=wrap;html=1;" vertex="1" parent="WIyWlLk6GJQsqaUBKTNV-1">
          <mxGeometry x="950" y="182" width="920" height="670" as="geometry" />
        </mxCell>
        <mxCell id="tyMHoPtOE--nNUZfLRSC-27" style="edgeStyle=orthogonalEdgeStyle;rounded=0;orthogonalLoop=1;jettySize=auto;html=1;exitX=0.5;exitY=1;exitDx=0;exitDy=0;entryX=0.5;entryY=0;entryDx=0;entryDy=0;" edge="1" parent="WIyWlLk6GJQsqaUBKTNV-1" source="tyMHoPtOE--nNUZfLRSC-28" target="tyMHoPtOE--nNUZfLRSC-30">
          <mxGeometry relative="1" as="geometry" />
        </mxCell>
        <mxCell id="tyMHoPtOE--nNUZfLRSC-28" value="Inicio" style="ellipse;whiteSpace=wrap;html=1;" vertex="1" parent="WIyWlLk6GJQsqaUBKTNV-1">
          <mxGeometry x="1370" y="80" width="120" height="80" as="geometry" />
        </mxCell>
        <mxCell id="tyMHoPtOE--nNUZfLRSC-29" style="edgeStyle=orthogonalEdgeStyle;rounded=0;orthogonalLoop=1;jettySize=auto;html=1;exitX=0.5;exitY=1;exitDx=0;exitDy=0;entryX=0.5;entryY=0;entryDx=0;entryDy=0;" edge="1" parent="WIyWlLk6GJQsqaUBKTNV-1" source="tyMHoPtOE--nNUZfLRSC-30" target="tyMHoPtOE--nNUZfLRSC-33">
          <mxGeometry relative="1" as="geometry" />
        </mxCell>
        <mxCell id="tyMHoPtOE--nNUZfLRSC-30" value="Entregas" style="rounded=0;whiteSpace=wrap;html=1;" vertex="1" parent="WIyWlLk6GJQsqaUBKTNV-1">
          <mxGeometry x="1370" y="210" width="120" height="60" as="geometry" />
        </mxCell>
        <mxCell id="tyMHoPtOE--nNUZfLRSC-31" style="edgeStyle=orthogonalEdgeStyle;rounded=0;orthogonalLoop=1;jettySize=auto;html=1;exitX=1;exitY=0.5;exitDx=0;exitDy=0;entryX=0.5;entryY=0;entryDx=0;entryDy=0;" edge="1" parent="WIyWlLk6GJQsqaUBKTNV-1" source="tyMHoPtOE--nNUZfLRSC-33" target="tyMHoPtOE--nNUZfLRSC-37">
          <mxGeometry relative="1" as="geometry" />
        </mxCell>
        <mxCell id="tyMHoPtOE--nNUZfLRSC-32" style="edgeStyle=orthogonalEdgeStyle;rounded=0;orthogonalLoop=1;jettySize=auto;html=1;exitX=0;exitY=0.5;exitDx=0;exitDy=0;entryX=0.5;entryY=0;entryDx=0;entryDy=0;" edge="1" parent="WIyWlLk6GJQsqaUBKTNV-1" source="tyMHoPtOE--nNUZfLRSC-33" target="tyMHoPtOE--nNUZfLRSC-35">
          <mxGeometry relative="1" as="geometry" />
        </mxCell>
        <mxCell id="tyMHoPtOE--nNUZfLRSC-33" value="Escolher&lt;div&gt;entregas&lt;/div&gt;" style="rhombus;whiteSpace=wrap;html=1;" vertex="1" parent="WIyWlLk6GJQsqaUBKTNV-1">
          <mxGeometry x="1390" y="320" width="80" height="80" as="geometry" />
        </mxCell>
        <mxCell id="tyMHoPtOE--nNUZfLRSC-34" style="edgeStyle=orthogonalEdgeStyle;rounded=0;orthogonalLoop=1;jettySize=auto;html=1;exitX=0.5;exitY=1;exitDx=0;exitDy=0;" edge="1" parent="WIyWlLk6GJQsqaUBKTNV-1" source="tyMHoPtOE--nNUZfLRSC-35" target="tyMHoPtOE--nNUZfLRSC-41">
          <mxGeometry relative="1" as="geometry" />
        </mxCell>
        <mxCell id="tyMHoPtOE--nNUZfLRSC-35" value="Próxima&lt;div&gt;Entrega&lt;/div&gt;" style="rounded=0;whiteSpace=wrap;html=1;" vertex="1" parent="WIyWlLk6GJQsqaUBKTNV-1">
          <mxGeometry x="1140" y="450" width="120" height="60" as="geometry" />
        </mxCell>
        <mxCell id="tyMHoPtOE--nNUZfLRSC-36" style="edgeStyle=orthogonalEdgeStyle;rounded=0;orthogonalLoop=1;jettySize=auto;html=1;exitX=0.5;exitY=1;exitDx=0;exitDy=0;entryX=0.5;entryY=0;entryDx=0;entryDy=0;" edge="1" parent="WIyWlLk6GJQsqaUBKTNV-1" source="tyMHoPtOE--nNUZfLRSC-37" target="tyMHoPtOE--nNUZfLRSC-47">
          <mxGeometry relative="1" as="geometry" />
        </mxCell>
        <mxCell id="tyMHoPtOE--nNUZfLRSC-37" value="Entregas&lt;div&gt;período sazonal&lt;/div&gt;" style="rounded=0;whiteSpace=wrap;html=1;" vertex="1" parent="WIyWlLk6GJQsqaUBKTNV-1">
          <mxGeometry x="1620" y="450" width="120" height="60" as="geometry" />
        </mxCell>
        <mxCell id="tyMHoPtOE--nNUZfLRSC-38" style="edgeStyle=orthogonalEdgeStyle;rounded=0;orthogonalLoop=1;jettySize=auto;html=1;exitX=0.5;exitY=1;exitDx=0;exitDy=0;entryX=0.5;entryY=0;entryDx=0;entryDy=0;" edge="1" parent="WIyWlLk6GJQsqaUBKTNV-1" source="tyMHoPtOE--nNUZfLRSC-41" target="tyMHoPtOE--nNUZfLRSC-43">
          <mxGeometry relative="1" as="geometry" />
        </mxCell>
        <mxCell id="tyMHoPtOE--nNUZfLRSC-39" style="edgeStyle=orthogonalEdgeStyle;rounded=0;orthogonalLoop=1;jettySize=auto;html=1;exitX=1;exitY=0.5;exitDx=0;exitDy=0;entryX=0.5;entryY=0;entryDx=0;entryDy=0;" edge="1" parent="WIyWlLk6GJQsqaUBKTNV-1" source="tyMHoPtOE--nNUZfLRSC-41" target="tyMHoPtOE--nNUZfLRSC-44">
          <mxGeometry relative="1" as="geometry" />
        </mxCell>
        <mxCell id="tyMHoPtOE--nNUZfLRSC-40" style="edgeStyle=orthogonalEdgeStyle;rounded=0;orthogonalLoop=1;jettySize=auto;html=1;exitX=0;exitY=0.5;exitDx=0;exitDy=0;entryX=0.5;entryY=0;entryDx=0;entryDy=0;" edge="1" parent="WIyWlLk6GJQsqaUBKTNV-1" source="tyMHoPtOE--nNUZfLRSC-41" target="tyMHoPtOE--nNUZfLRSC-42">
          <mxGeometry relative="1" as="geometry" />
        </mxCell>
        <mxCell id="tyMHoPtOE--nNUZfLRSC-41" value="Escolher informação entrega" style="rhombus;whiteSpace=wrap;html=1;" vertex="1" parent="WIyWlLk6GJQsqaUBKTNV-1">
          <mxGeometry x="1150" y="570" width="100" height="100" as="geometry" />
        </mxCell>
        <mxCell id="tyMHoPtOE--nNUZfLRSC-42" value="Produtores e produtos a entregar" style="rounded=0;whiteSpace=wrap;html=1;" vertex="1" parent="WIyWlLk6GJQsqaUBKTNV-1">
          <mxGeometry x="980" y="720" width="120" height="60" as="geometry" />
        </mxCell>
        <mxCell id="tyMHoPtOE--nNUZfLRSC-43" value="Co-Produtores e produtos a receber" style="rounded=0;whiteSpace=wrap;html=1;" vertex="1" parent="WIyWlLk6GJQsqaUBKTNV-1">
          <mxGeometry x="1140" y="720" width="120" height="60" as="geometry" />
        </mxCell>
        <mxCell id="tyMHoPtOE--nNUZfLRSC-44" value="Pagamentos" style="rounded=0;whiteSpace=wrap;html=1;" vertex="1" parent="WIyWlLk6GJQsqaUBKTNV-1">
          <mxGeometry x="1300" y="720" width="120" height="60" as="geometry" />
        </mxCell>
        <mxCell id="tyMHoPtOE--nNUZfLRSC-45" style="edgeStyle=orthogonalEdgeStyle;rounded=0;orthogonalLoop=1;jettySize=auto;html=1;exitX=0;exitY=0.5;exitDx=0;exitDy=0;" edge="1" parent="WIyWlLk6GJQsqaUBKTNV-1" source="tyMHoPtOE--nNUZfLRSC-47" target="tyMHoPtOE--nNUZfLRSC-48">
          <mxGeometry relative="1" as="geometry" />
        </mxCell>
        <mxCell id="tyMHoPtOE--nNUZfLRSC-46" style="edgeStyle=orthogonalEdgeStyle;rounded=0;orthogonalLoop=1;jettySize=auto;html=1;exitX=1;exitY=0.5;exitDx=0;exitDy=0;entryX=0.5;entryY=0;entryDx=0;entryDy=0;" edge="1" parent="WIyWlLk6GJQsqaUBKTNV-1" source="tyMHoPtOE--nNUZfLRSC-47" target="tyMHoPtOE--nNUZfLRSC-49">
          <mxGeometry relative="1" as="geometry" />
        </mxCell>
        <mxCell id="tyMHoPtOE--nNUZfLRSC-47" value="Escolher resumo de entregas" style="rhombus;whiteSpace=wrap;html=1;" vertex="1" parent="WIyWlLk6GJQsqaUBKTNV-1">
          <mxGeometry x="1635" y="570" width="90" height="90" as="geometry" />
        </mxCell>
        <mxCell id="tyMHoPtOE--nNUZfLRSC-48" value="Resumo das entregas sazonais" style="rounded=0;whiteSpace=wrap;html=1;" vertex="1" parent="WIyWlLk6GJQsqaUBKTNV-1">
          <mxGeometry x="1520" y="720" width="110" height="60" as="geometry" />
        </mxCell>
        <mxCell id="tyMHoPtOE--nNUZfLRSC-49" value="Resumo dos pagamentos" style="rounded=0;whiteSpace=wrap;html=1;" vertex="1" parent="WIyWlLk6GJQsqaUBKTNV-1">
          <mxGeometry x="1720" y="720" width="110" height="60" as="geometry" />
        </mxCell>
        <mxCell id="tyMHoPtOE--nNUZfLRSC-50" value="Fim" style="ellipse;whiteSpace=wrap;html=1;" vertex="1" parent="WIyWlLk6GJQsqaUBKTNV-1">
          <mxGeometry x="1400" y="910" width="75" height="50" as="geometry" />
        </mxCell>
        <mxCell id="tyMHoPtOE--nNUZfLRSC-51" style="edgeStyle=orthogonalEdgeStyle;rounded=0;orthogonalLoop=1;jettySize=auto;html=1;exitX=0.5;exitY=0;exitDx=0;exitDy=0;entryX=0.529;entryY=1.003;entryDx=0;entryDy=0;entryPerimeter=0;" edge="1" parent="WIyWlLk6GJQsqaUBKTNV-1" source="tyMHoPtOE--nNUZfLRSC-50" target="tyMHoPtOE--nNUZfLRSC-26">
          <mxGeometry relative="1" as="geometry" />
        </mxCell>
      </root>
    </mxGraphModel>
  </diagram>
</mxfile>
